!DOCTYPE svg PUBLIC "-//W3C//DTD SVG 1.0//EN" "http://www.w3.org/TR/2001/REC-SVG-20010904/DTD/svg10.dtd" &gt; <svg xmlns="http://www.w3.org/2000/svg" width="100%" height="100%"><defs><font id="FCZizouSans-Regular-Web" horiz-adv-x="481"><font-face font-family="FC Zizou Sans Web" units-per-em="1000" panose-1="0 0 0 0 0 0 0 0 0 0" ascent="854" descent="-146" alphabetic="0"/><missing-glyph horiz-adv-x="500"/><glyph glyph-name="space" horiz-adv-x="193"/><glyph unicode="!" glyph-name="exclam" horiz-adv-x="252" d="M157 171H93L76 654H174L157 171ZM126 -7Q103 -7 85 10T67 51Q67 75 85 92T126 110Q151 110 168 93T185 51Q185 27 168 10T126 -7Z"/><glyph unicode="&quot;" glyph-name="quotedbl" horiz-adv-x="347" d="M72 441L55 639H149L132 441H72ZM215 441L198 639H292L275 441H215Z"/><glyph unicode="#" glyph-name="numbersign" horiz-adv-x="500" d="M274 197H184L152 0H85L117 197H40V272H129L147 384H70V459H159L188 639H255L226 459H316L345 639H412L383 459H460V384H371L353 272H429V197H341L309 0H242L274 197ZM196 272H286L304 384H214L196 272Z"/><glyph unicode="$" glyph-name="dollar" horiz-adv-x="510" d="M160 -107L175 -8Q129 1 96 18T44 53V127Q67 107 102 88T185 59L220 292Q195 297 173 303T133 320Q93 342 73 376T52 468Q52 516 69 551T114 608T180 642T256 653Q261 653 265 653T274 652L284 718H343L332 645Q363 638 386 627T425 603V532Q409 543 381 554T321 573L288 354Q319 348 348 340T402 315Q430 295 446 263T463 178Q463 127 445 91T397 31T329 -4T249 -15Q244 -15 241 -15T233 -14L219 -107H160ZM352 250Q339 260 320 266T277 278L243 54Q271 54 296 60T340 81T369 118T380 174Q380 200 375 218T352 250ZM174 389Q187 381 201 376T231 367L263 580Q239 580 216 576T175 559T145 526T134 469Q134 445 142 424T174 389Z"/><glyph unicode="%" glyph-name="percent" horiz-adv-x="677" d="M638 148Q638 106 627 76T596 26T552 -3T498 -13Q471 -13 446 -4T401 25T370 75T358 148V156Q358 231 397 271T498 312Q560 312 599 272T638 156V148ZM431 136Q431 82 449 61T498 39Q529 39 547 60T565 136V172Q565 256 498 256Q431 256 431 172V136ZM179 380Q210 380 228 401T246 477V513Q246 597 179 597Q112 597 112 513V477Q112 423 130 402T179 380ZM179 328Q152 328 127 337T82 366T51 416T39 489V497Q39 572 78 612T179 653Q241 653 280 613T319 497V489Q319 447 308 417T277 367T233 338T179 328ZM154 0H86L526 639H594L154 0Z"/><glyph unicode="&amp;" glyph-name="ampersand" horiz-adv-x="594" d="M230 -11Q183 -11 148 2T87 37T50 90T37 156Q37 195 48 223T79 272T126 310T184 342Q157 374 140 410T123 496Q123 528 133 556T164 606T213 639T279 652Q352 652 392 612T432 505Q432 444 394 405T295 333L414 189Q449 259 474 362H555Q535 294 514 236T463 130L569 0H463L412 63Q377 28 333 9T230 -11ZM233 55Q312 55 367 119L223 298Q196 284 177 270T147 240T130 204T124 160Q124 112 153 84T233 55ZM204 497Q204 462 219 433T262 371Q307 398 328 431T349 502Q349 534 332 558T279 582Q246 582 225 559T204 497Z"/><glyph unicode="'" glyph-name="quotesingle" horiz-adv-x="204" d="M72 441L55 639H149L132 441H72Z"/><glyph unicode="(" glyph-name="parenleft" horiz-adv-x="312" d="M134 266Q134 205 145 152T177 54T223 -28T280 -93V-98H204Q185 -81 159 -49T108 29T67 137T50 275V308Q50 380 67 439T108 545T158 624T204 673H280V668Q250 641 224 603T177 519T146 422T134 317V266Z"/><glyph unicode=")" glyph-name="parenright" horiz-adv-x="312" d="M178 309Q178 370 167 423T135 521T89 603T32 668V673H108Q127 656 153 624T204 546T245 438T262 300V267Q262 195 245 136T204 30T154 -49T108 -98H32V-93Q62 -66 88 -28T135 56T166 153T178 258V309Z"/><glyph unicode="*" glyph-name="asterisk" horiz-adv-x="359" d="M43 457L134 499L43 538L76 595L155 538L144 639H215L205 540L283 595L316 538L223 499L316 457L283 399L204 457L215 356H144L155 459L76 399L43 457Z"/><glyph unicode="+" glyph-name="plus" horiz-adv-x="490" d="M283 351H434V279H283V116H207V279H56V351H207V513H283V351Z"/><glyph unicode="," glyph-name="comma" horiz-adv-x="224" d="M38 -112Q56 -68 63 -30T71 42Q71 74 65 103H159Q161 92 161 83T162 63Q162 12 143 -31T88 -112H38Z"/><glyph unicode="-" glyph-name="hyphen" horiz-adv-x="283" d="M50 304H233V234H50V304Z"/><glyph unicode="." glyph-name="period" horiz-adv-x="224" d="M112 -7Q89 -7 71 10T53 51Q53 75 71 92T112 110Q137 110 154 93T171 51Q171 27 154 10T112 -7Z"/><glyph unicode="/" glyph-name="slash" horiz-adv-x="341" d="M90 -98H14L234 673H310L90 -98Z"/><glyph unicode="0" glyph-name="zero" horiz-adv-x="604" d="M302 -15Q252 -15 206 3T125 60T69 159T48 305V348Q48 424 67 481T119 576T199 633T302 653Q357 653 404 634T484 576T537 481T556 348V305Q556 220 536 160T480 60T399 3T302 -15ZM302 56Q338 56 368 69T421 110T456 181T469 286V377Q469 472 425 525T302 578Q224 578 180 525T135 377V286Q135 225 147 182T182 110T235 69T302 56Z"/><glyph unicode="1" glyph-name="one" horiz-adv-x="375" d="M191 560L40 395H37V491L168 639H278V0H191V560Z"/><glyph unicode="2" glyph-name="two" horiz-adv-x="490" d="M36 100Q192 203 267 288T342 458Q342 492 333 515T308 552T269 572T220 578Q164 578 123 559T49 517V583Q74 609 115 631T225 653Q268 653 305 642T371 608T414 546T430 454Q430 401 407 353T341 258T236 166T96 72V71H437V0H36V100Z"/><glyph unicode="3" glyph-name="three" horiz-adv-x="503" d="M234 653Q277 653 314 642T378 609T420 556T435 486Q435 420 401 381T298 333V330Q373 322 415 282T457 171Q457 86 401 38T235 -10Q195 -10 164 -4T109 13T68 37T38 63V129Q72 99 117 81T230 62Q302 62 336 94T370 183Q370 239 337 267T225 296H133V365H225Q291 365 320 392T350 475Q350 529 318 553T226 578Q169 578 131 562T60 522V587Q84 612 126 632T234 653Z"/><glyph unicode="4" glyph-name="four" horiz-adv-x="550" d="M411 639V209H523V136H411V0H324V136H38V235L281 639H411ZM100 209H324V575L100 209Z"/><glyph unicode="5" glyph-name="five" horiz-adv-x="505" d="M238 401Q297 401 338 385T406 340T445 275T457 195Q457 152 442 115T397 50T326 6T230 -10Q189 -10 160 -5T110 10T75 30T49 52V118Q64 107 80 97T117 79T164 67T225 62Q294 62 332 98T370 200Q370 268 336 301T221 335Q167 335 131 324T70 301H62V639H420V564H141V386Q186 401 238 401Z"/><glyph unicode="6" glyph-name="six" horiz-adv-x="560" d="M464 634Q409 608 358 576T263 505T189 421T144 325Q164 362 203 385T302 408Q354 408 394 392T461 347T502 282T516 201V196Q516 149 501 110T457 44T385 1T289 -15Q235 -15 191 2T115 51T66 128T48 229V247Q48 329 79 394T154 508T246 589T328 639H464V634ZM287 345Q254 345 227 336T179 310T148 271T135 221V196Q135 130 176 91T289 52Q360 52 394 92T429 194V202Q429 230 422 255T397 301T353 333T287 345Z"/><glyph unicode="7" glyph-name="seven" horiz-adv-x="480" d="M31 639H440V535L210 0H122L366 565H31V639Z"/><glyph unicode="8" glyph-name="eight" horiz-adv-x="531" d="M266 -14Q221 -14 181 -1T110 36T62 94T44 173V181Q44 241 80 282T180 341Q129 357 97 392T64 484V489Q64 525 79 554T120 606T184 640T266 652Q310 652 347 640T410 607T452 555T467 490V484Q467 428 435 393T351 341Q414 324 450 283T487 182V174Q487 130 469 95T421 36T351 -1T266 -14ZM266 55Q325 55 362 83T399 175V191Q399 245 364 278T266 311Q203 311 168 278T132 191V175Q132 112 169 84T266 55ZM266 367Q320 367 352 392T385 472V487Q385 529 354 556T266 584Q209 584 178 557T146 487V472Q146 418 179 393T266 367Z"/><glyph unicode="9" glyph-name="nine" horiz-adv-x="560" d="M131 5Q177 26 222 57T305 126T371 210T414 304Q393 269 355 247T258 225Q206 225 166 241T99 285T58 351T44 432V437Q44 485 59 525T103 593T175 638T271 654Q325 654 369 638T445 591T494 515T512 410V392Q512 316 485 252T420 138T340 53T267 0H131V5ZM273 288Q342 288 383 324T425 417V441Q425 507 384 547T271 587Q199 587 165 547T131 443V435Q131 407 138 381T163 334T207 301T273 288Z"/><glyph unicode=":" glyph-name="colon" horiz-adv-x="224" d="M112 -7Q89 -7 71 10T53 51Q53 75 71 92T112 110Q137 110 154 93T171 51Q171 27 154 10T112 -7ZM112 303Q89 303 71 320T53 361Q53 385 71 402T112 420Q137 420 154 403T171 361Q171 337 154 320T112 303Z"/><glyph unicode=";" glyph-name="semicolon" horiz-adv-x="224" d="M38 -112Q56 -68 63 -30T71 42Q71 74 65 103H159Q161 92 161 83T162 63Q162 12 143 -31T88 -112H38ZM112 303Q89 303 71 320T53 361Q53 385 71 402T112 420Q137 420 154 403T171 361Q171 337 154 320T112 303Z"/><glyph unicode="&lt;" glyph-name="less" horiz-adv-x="486" d="M429 524V447L123 315L429 184V106L57 266V364L429 524Z"/><glyph unicode="=" glyph-name="equal" horiz-adv-x="526" d="M464 261V189H62V261H464ZM464 441V369H62V441H464Z"/><glyph unicode="&gt;" glyph-name="greater" horiz-adv-x="486" d="M57 106V183L362 314L57 446V524L429 364V266L57 106Z"/><glyph unicode="?" glyph-name="question" horiz-adv-x="399" d="M165 -7Q142 -7 124 10T106 51Q106 75 124 92T165 110Q190 110 207 93T224 51Q224 27 207 10T165 -7ZM123 171V215Q123 246 131 270T153 315T184 353T217 386Q241 409 258 434T276 493Q276 541 251 564T179 587Q141 587 103 577T35 544V609Q57 631 95 646T187 661Q222 661 253 652T307 623T344 571T358 494Q358 467 352 446T335 407T308 373T275 339Q259 324 244 310T218 280T199 246T192 202V171H123Z"/><glyph unicode="@" glyph-name="at" horiz-adv-x="877" d="M401 92Q422 92 443 101T483 129T513 173T531 231L533 245Q539 285 532 313T511 359T476 385T434 393Q412 393 391 383T353 348T326 286T315 193Q315 148 336 120T401 92ZM526 132Q509 81 472 55T387 28Q311 28 272 78T232 207Q232 257 245 303T285 384T348 441T435 463Q463 463 484 454T519 429T542 393T553 350Q555 370 560 388T572 420Q578 437 586 452H651L607 181Q599 131 609 111T652 90Q701 90 735 146T769 316Q769 391 745 443T678 528T580 575T459 590Q384 590 321 563T211 488T138 371T112 218Q112 141 134 82T199 -19T303 -81T442 -102Q479 -102 517 -96T589 -79T653 -54T702 -24V-79Q684 -94 657 -108T595 -134T520 -152T437 -159Q351 -159 280 -134T156 -60T74 58T45 217Q45 319 79 399T171 536T304 622T464 652Q543 652 610 629T727 563T805 456T834 314Q834 249 821 197T782 109T722 53T645 33Q588 33 559 61T526 132Z"/><glyph unicode="A" glyph-name="A" horiz-adv-x="602" d="M435 189H160L97 0H14L230 639H372L588 0H499L435 189ZM185 262H411L298 600L185 262Z"/><glyph unicode="B" glyph-name="B" horiz-adv-x="576" d="M84 639H307Q351 639 387 629T449 597T489 545T503 471Q503 405 471 365T363 317V314Q439 309 482 275T526 177Q526 137 516 105T480 49T411 13T303 0H84V639ZM290 351Q356 351 387 377T418 460Q418 518 387 541T297 565H171V351H290ZM292 69Q336 69 364 75T409 95T432 128T439 175Q439 235 404 256T290 278H171V69H292Z"/><glyph unicode="C" glyph-name="C" horiz-adv-x="569" d="M340 -15Q274 -15 219 7T125 73T64 179T42 324V326Q42 401 61 461T116 564T207 630T331 653Q410 653 456 632T525 586V515Q492 540 447 557T337 575Q283 575 244 559T179 514T141 444T129 351V311Q129 186 183 122T346 58Q373 58 399 63T449 78T493 100T527 126V55Q502 27 454 6T340 -15Z"/><glyph unicode="D" glyph-name="D" horiz-adv-x="636" d="M84 639H321Q391 639 442 618T526 556T575 459T591 331V329Q591 171 520 86T302 0H84V639ZM291 69Q349 69 389 85T455 133T492 211T504 315V355Q504 402 495 441T465 507T406 550T311 565H171V69H291Z"/><glyph unicode="E" glyph-name="E" horiz-adv-x="548" d="M84 639H480V564H171V354H460V281H171V71H480V0H84V639Z"/><glyph unicode="F" glyph-name="F" horiz-adv-x="545" d="M84 639H486V564H171V334H466V261H171V0H84V639Z"/><glyph unicode="G" glyph-name="G" horiz-adv-x="608" d="M545 64Q510 29 458 7T339 -15Q275 -15 221 7T128 72T67 178T45 322V324Q45 399 66 459T125 563T218 629T338 653Q408 653 452 635T524 591V521Q497 540 452 557T347 574Q296 574 257 558T189 513T147 442T132 349V309Q132 184 186 121T345 57Q376 57 404 63T458 81V315H545V64V64Z"/><glyph unicode="H" glyph-name="H" horiz-adv-x="662" d="M84 639H171V362H491V639H578V0H491V289H171V0H84V639Z"/><glyph unicode="I" glyph-name="I" horiz-adv-x="263" d="M88 639H175V0H88V639Z"/><glyph unicode="J" glyph-name="J" horiz-adv-x="378" d="M139 -8Q99 -8 71 0T28 22V76Q43 71 65 67T119 62Q168 62 190 87T213 164V639H300V158Q300 81 262 37T139 -8Z"/><glyph unicode="K" glyph-name="K" horiz-adv-x="568" d="M171 336L447 639H545L266 338L548 0H442L171 329V0H84V639H171V336Z"/><glyph unicode="L" glyph-name="L" horiz-adv-x="520" d="M84 639H171V71H480V0H84V639Z"/><glyph unicode="M" glyph-name="M" horiz-adv-x="808" d="M591 639H724V0H637V559L448 0H353L165 553V0H84V639H220L404 79L591 639Z"/><glyph unicode="N" glyph-name="N" horiz-adv-x="672" d="M84 639H223L507 78V639H588V0H459L165 571V0H84V639Z"/><glyph unicode="O" glyph-name="O" horiz-adv-x="658" d="M329 -15Q266 -15 214 6T124 69T66 174T45 321V323Q45 398 63 459T116 563T205 629T329 653Q400 653 453 630T541 563T595 459T613 323V321Q613 237 593 174T535 69T446 6T329 -15ZM329 56Q429 56 477 115T526 302V354Q526 403 515 444T481 515T420 561T329 578Q276 578 239 562T178 515T143 444T132 354V302Q132 174 180 115T329 56Z"/><glyph unicode="P" glyph-name="P" horiz-adv-x="557" d="M84 639H311Q415 639 466 586T517 438Q517 341 460 290T294 239H171V0H84V639ZM284 309Q368 309 400 344T432 439Q432 497 403 531T301 565H171V309H284Z"/><glyph unicode="Q" glyph-name="Q" horiz-adv-x="658" d="M329 -15Q266 -15 214 6T124 69T66 174T45 321V323Q45 398 63 459T116 563T205 629T329 653Q400 653 453 630T541 563T595 459T613 323V321Q613 220 584 150T503 39L600 -85H507L438 3Q413 -5 386 -10T329 -15ZM329 53Q363 53 393 61L283 203H376L460 95Q526 153 526 302V354Q526 403 515 444T481 515T420 561T329 578Q276 578 239 562T178 515T143 444T132 354V302Q132 174 180 114T329 53Z"/><glyph unicode="R" glyph-name="R" horiz-adv-x="562" d="M84 639H300Q404 639 455 589T506 454Q506 365 452 322T306 278H290L541 0H435L171 294V0H84V639ZM286 337Q361 337 389 366T418 456Q418 508 391 536T290 565H171V337H286Z"/><glyph unicode="S" glyph-name="S" horiz-adv-x="515" d="M253 -15Q173 -15 122 6T45 53V129Q60 116 80 103T125 80T181 63T246 56Q276 56 302 62T347 83T378 119T389 175Q389 201 384 218T361 249Q345 261 315 269T251 284T184 299T129 319Q89 341 69 376T48 469Q48 517 65 551T112 608T180 642T260 653Q324 653 367 638T434 603V530Q422 538 404 546T363 562T316 573T268 578Q242 578 218 574T174 559T142 526T130 470Q130 446 138 426T170 392Q195 377 227 370T292 357T356 343T411 318Q439 298 455 265T472 179Q472 128 454 92T406 32T336 -3T253 -15Z"/><glyph unicode="T" glyph-name="T" horiz-adv-x="569" d="M241 564H32V639H537V564H328V0H241V564Z"/><glyph unicode="U" glyph-name="U" horiz-adv-x="662" d="M78 639H165V226Q165 176 175 143T207 89T259 61T331 53Q371 53 402 61T454 88T486 141T497 225V639H584V244Q584 168 564 118T510 39T429 -3T331 -15Q280 -15 234 -3T154 39T99 119T78 245V639Z"/><glyph unicode="V" glyph-name="V" horiz-adv-x="602" d="M505 639H588L366 0H236L14 639H106L304 52L505 639Z"/><glyph unicode="W" glyph-name="W" horiz-adv-x="901" d="M784 639H868L722 0H592L451 543L310 0H179L33 639H124L250 52L404 639H503L655 52L784 639Z"/><glyph unicode="X" glyph-name="X" horiz-adv-x="579" d="M234 332L38 639H134L294 386L446 639H537L345 336L555 0H459L288 281L115 0H24L234 332Z"/><glyph unicode="Y" glyph-name="Y" horiz-adv-x="547" d="M230 246L14 639H108L277 324L445 639H533L317 248V0H230V246Z"/><glyph unicode="Z" glyph-name="Z" horiz-adv-x="557" d="M511 639V543L124 68H507V0H47V96L429 566H73V639H511Z"/><glyph unicode="[" glyph-name="bracketleft" horiz-adv-x="377" d="M84 673H330V605H163V-34H330V-98H84V673Z"/><glyph unicode="\" glyph-name="backslash" horiz-adv-x="341" d="M107 673L327 -98H251L31 673H107Z"/><glyph unicode="]" glyph-name="bracketright" horiz-adv-x="377" d="M293 -98H47V-34H214V605H47V673H293V-98Z"/><glyph unicode="^" glyph-name="asciicircum" horiz-adv-x="426" d="M305 435L213 584L121 435H52L161 639H265L374 435H305Z"/><glyph unicode="_" glyph-name="underscore" horiz-adv-x="381" d="M-1 -74H382V-134H-1V-74Z"/><glyph unicode="`" glyph-name="grave" horiz-adv-x="414" d="M68 673H187L244 539H187L68 673Z"/><glyph unicode="a" glyph-name="a" horiz-adv-x="472" d="M179 -13Q116 -13 77 21T37 116V117Q37 156 53 181T97 222T159 247T233 266Q262 273 280 279T310 294T325 313T330 340V342Q330 374 305 396T223 419Q196 419 172 414T128 400T92 383T67 366V426Q76 436 91 447T127 469T175 485T235 491Q328 491 370 443T414 313V127Q414 89 414 65T415 26Q416 9 417 0H350Q344 13 340 28Q336 41 333 57T330 94Q316 40 276 14T179 -13ZM209 45Q231 45 252 54T291 81T319 125T330 186V257Q314 243 290 233T240 214Q207 202 185 193T149 173T129 151T123 124V119Q123 45 209 45Z"/><glyph unicode="b" glyph-name="b" horiz-adv-x="567" d="M324 -11Q254 -11 209 23T147 116Q145 83 142 61T136 25Q132 9 128 0H64V673H148V357Q165 417 212 454T331 491Q377 491 413 474T475 424T513 347T526 248V247Q526 183 511 135T468 55T403 6T324 -11ZM305 51Q367 51 403 94T440 234V270Q440 342 406 383T305 424Q274 424 246 414T196 382T161 331T148 262V242Q148 191 161 155T195 96T245 62T305 51Z"/><glyph unicode="c" glyph-name="c" horiz-adv-x="466" d="M272 -11Q220 -11 178 7T105 59T58 139T41 242V243Q41 307 61 354T113 431T187 476T270 491Q337 491 373 477T425 443V387Q399 406 366 415T276 425Q246 425 219 416T172 388T139 339T127 268V232Q127 142 167 97T283 52Q329 52 369 67T433 97V45Q418 25 377 7T272 -11Z"/><glyph unicode="d" glyph-name="d" horiz-adv-x="567" d="M244 -12Q197 -12 160 7T96 60T55 143T41 252V253Q41 311 57 355T102 430T166 475T244 490Q316 490 358 456T419 364V673H503V0H439Q433 17 429 36Q425 53 422 74T419 120Q402 58 358 23T244 -12ZM262 50Q293 50 321 62T371 96T406 152T419 228V246Q419 294 406 327T371 382T321 413T262 423Q200 423 164 387T127 266V230Q127 147 161 99T262 50Z"/><glyph unicode="e" glyph-name="e" horiz-adv-x="498" d="M127 220Q128 174 139 143T172 92T224 64T295 55Q346 55 387 67T449 94V40Q435 21 393 5T285 -11Q230 -11 185 5T108 54T59 133T41 241V242Q41 297 57 342T102 421T173 472T265 491Q319 491 356 474T417 429T451 365T462 289Q462 252 455 220H127ZM265 430Q205 430 167 389T127 273H386V283Q386 360 352 395T265 430Z"/><glyph unicode="f" glyph-name="f" horiz-adv-x="348" d="M98 479V533Q98 576 111 604T145 650T188 673T229 680Q261 680 283 672T318 652V611Q309 612 293 612T265 613Q240 613 224 609T199 596T186 574T182 541V479H318V414H182V0H98V414H26V479H98Z"/><glyph unicode="g" glyph-name="g" horiz-adv-x="564" d="M264 -155Q223 -155 193 -150T142 -136T106 -117T83 -95V-31Q103 -49 142 -66T256 -83Q290 -83 320 -75T372 -47T406 0T419 70V141Q402 81 357 52T242 22Q194 22 157 39T94 87T55 163T41 261V262Q41 314 57 356T100 428T165 474T245 490Q317 490 359 462T419 375Q420 395 423 414T430 448Q434 465 439 479H503V76Q503 20 485 -23T435 -95T360 -139T264 -155ZM260 83Q291 83 319 93T370 123T405 172T419 241V257Q419 299 407 330T373 382T323 413T264 423Q202 423 165 387T127 273V241Q127 166 160 125T260 83Z"/><glyph unicode="h" glyph-name="h" horiz-adv-x="533" d="M64 673H148V348Q154 383 170 409T209 454T260 481T320 491Q390 491 432 450T475 327V0H391V340Q391 421 297 421Q266 421 239 411T192 381T160 332T148 265V0H64V673Z"/><glyph unicode="i" glyph-name="i" horiz-adv-x="220" d="M110 551Q87 551 71 566T55 605Q55 628 71 644T110 660Q133 660 149 644T165 605Q165 582 149 567T110 551ZM68 479H152V0H68V479Z"/><glyph unicode="j" glyph-name="j" horiz-adv-x="220" d="M110 551Q87 551 71 566T55 605Q55 628 71 644T110 660Q133 660 149 644T165 605Q165 582 149 567T110 551ZM152 -33Q152 -67 143 -90T119 -127T83 -147T41 -153Q9 -153 -11 -146T-39 -130V-87Q-37 -88 -33 -88H-16Q31 -88 49 -76T68 -28V479H152V-33Z"/><glyph unicode="k" glyph-name="k" horiz-adv-x="464" d="M64 673H148V262L353 479H444L234 260L447 0H349L148 248V0H64V673Z"/><glyph unicode="l" glyph-name="l" horiz-adv-x="217" d="M67 673H150V0H67V673Z"/><glyph unicode="m" glyph-name="m" horiz-adv-x="816" d="M64 479H128Q134 462 138 443Q142 426 145 406T148 362V353Q161 420 206 455T309 491Q372 491 407 454T444 343Q450 379 466 407T506 453T556 481T614 491Q681 491 719 450T758 327V0H674V340Q674 382 656 401T593 421Q530 421 493 381T453 265V0H369V340Q369 382 351 401T288 421Q227 421 189 381T148 265V0H64V479Z"/><glyph unicode="n" glyph-name="n" horiz-adv-x="533" d="M64 479H128Q134 462 138 443Q142 426 145 406T148 362V348Q154 383 170 409T209 454T260 481T320 491Q390 491 432 450T475 327V0H391V340Q391 421 297 421Q266 421 239 411T192 381T160 332T148 265V0H64V479Z"/><glyph unicode="o" glyph-name="o" horiz-adv-x="540" d="M270 -11Q223 -11 182 4T109 52T60 132T41 245V246Q41 302 57 347T104 424T176 473T269 491Q321 491 363 474T436 425T482 348T499 247V246Q499 181 481 133T431 52T358 5T270 -11ZM270 49Q301 49 327 59T372 91T402 147T413 232V270Q413 345 375 387T270 430Q204 430 166 388T127 270V232Q127 182 138 148T168 91T213 59T270 49Z"/><glyph unicode="p" glyph-name="p" horiz-adv-x="567" d="M64 479H128Q134 462 138 443Q142 426 145 406T148 362V357Q165 417 212 454T331 491Q377 491 413 474T475 424T513 347T526 248V247Q526 183 511 135T468 55T403 6T324 -11Q255 -11 210 22T148 114V-146H64V479ZM305 51Q367 51 403 94T440 234V270Q440 342 406 383T305 424Q274 424 246 414T196 382T161 331T148 262V242Q148 191 161 155T195 96T245 62T305 51Z"/><glyph unicode="q" glyph-name="q" horiz-adv-x="567" d="M419 120Q402 58 358 23T244 -12Q197 -12 160 7T96 60T55 143T41 252V253Q41 311 57 355T102 430T166 475T244 490Q316 490 358 456T419 363Q419 386 422 406T429 443Q433 461 439 479H503V-146H419V120ZM262 50Q293 50 321 62T371 96T406 152T419 228V246Q419 294 406 327T371 382T321 413T262 423Q200 423 164 387T127 266V230Q127 147 161 99T262 50Z"/><glyph unicode="r" glyph-name="r" horiz-adv-x="349" d="M64 479H128Q134 462 138 443Q142 426 145 406T148 362V330Q155 371 169 400T201 449T239 477T279 486Q301 486 310 481T325 467V409Q282 409 249 399T194 365T160 302T148 205V0H64V479Z"/><glyph unicode="s" glyph-name="s" horiz-adv-x="415" d="M204 -11Q142 -11 102 3T34 41V103Q51 92 67 84T101 69T142 59T195 55Q248 55 275 72T303 131Q303 149 298 164T273 189Q260 196 240 200T196 208T150 218T109 233Q75 250 58 275T41 349Q41 385 54 411T91 456T146 482T215 491Q260 491 297 480T356 451V392Q332 405 298 415T223 425Q202 425 183 422T150 410T126 388T117 353Q117 335 123 321T149 298Q170 288 193 283T238 274T282 265T321 250Q349 235 365 209T382 135Q382 99 368 72T330 26T274 -2T204 -11Z"/><glyph unicode="t" glyph-name="t" horiz-adv-x="375" d="M244 -13Q217 -13 191 -7T145 16T111 61T98 133V413H26V463Q58 464 75 472T103 499T117 547T128 619H182V479H336V413H182V139Q182 88 202 71T258 53Q281 53 302 57T344 69V27Q334 11 310 -1T244 -13Z"/><glyph unicode="u" glyph-name="u" horiz-adv-x="533" d="M223 -12Q148 -12 105 32T61 173V479H145V160Q145 103 169 79T241 54Q272 54 298 65T344 97T374 147T385 212V479H469V0H405Q399 17 395 36Q391 53 388 73T385 117V123Q379 91 364 66T327 23T278 -3T223 -12Z"/><glyph unicode="v" glyph-name="v" horiz-adv-x="502" d="M17 479H108L258 57L400 479H485L312 0H197L17 479Z"/><glyph unicode="w" glyph-name="w" horiz-adv-x="717" d="M359 370L267 0H151L23 479H109L213 57L319 479H402L514 57L613 479H694L571 0H454L359 370Z"/><glyph unicode="x" glyph-name="x" horiz-adv-x="498" d="M190 242L33 479H131L254 285L373 479H461L308 245L476 0H378L245 202L110 0H22L190 242Z"/><glyph unicode="y" glyph-name="y" horiz-adv-x="497" d="M137 -156Q99 -156 76 -146T39 -122V-76Q58 -82 79 -86T133 -90Q168 -90 190 -73T224 -26L233 0H196L17 479H108L255 63L396 479H480L304 -6Q275 -86 238 -121T137 -156Z"/><glyph unicode="z" glyph-name="z" horiz-adv-x="446" d="M410 479V397L119 64H407V0H40V82L330 414H59V479H410Z"/><glyph unicode="{" glyph-name="braceleft" horiz-adv-x="302" d="M91 288Q124 282 146 272T182 247T201 214T207 177Q207 157 203 138T195 100T187 64T183 29Q183 6 187 -10T201 -40T225 -66T260 -93V-98H187Q173 -93 158 -83T129 -58T108 -23T99 22Q99 42 104 62T116 103T128 143T134 181Q134 192 130 203T114 225T84 241T37 250V329Q65 331 84 337T114 354T129 375T134 398Q134 416 129 435T117 473T105 513T99 553Q99 578 107 598T129 633T157 658T187 673H260V668Q240 654 226 642T202 616T188 585T183 546Q183 529 186 512T194 477T203 441T207 402Q207 363 183 333T91 291V288Z"/><glyph unicode="|" glyph-name="bar" horiz-adv-x="250" d="M163 -98H87V673H163V-98Z"/><glyph unicode="}" glyph-name="braceright" horiz-adv-x="302" d="M211 291Q144 303 120 333T95 402Q95 422 99 440T107 477T115 512T119 546Q119 568 115 585T101 615T77 641T42 668V673H115Q129 668 144 658T173 633T194 598T203 553Q203 533 198 513T186 474T174 435T168 398Q168 387 172 376T188 354T218 338T265 329V250Q237 248 218 242T188 225T173 204T168 181Q168 163 173 144T185 104T197 63T203 22Q203 -3 195 -23T173 -58T145 -83T115 -98H42V-93Q62 -79 76 -67T100 -41T114 -11T119 29Q119 46 116 63T108 100T99 138T95 177Q95 196 100 214T119 246T155 271T211 288V291Z"/><glyph unicode="~" glyph-name="asciitilde" horiz-adv-x="384" d="M62 221Q58 243 60 264T72 301T97 326T136 336Q157 336 172 330T200 318T222 305T244 299Q260 299 265 309T272 341H319Q323 318 321 298T311 261T287 236T250 226Q233 226 219 232T191 244T165 257T138 263Q123 263 117 253T109 221H62V221Z"/><glyph glyph-name="uni00A0" horiz-adv-x="200"/><glyph unicode="¡" glyph-name="exclamdown" horiz-adv-x="252" d="M81 316H145L162 -167H64L81 316ZM112 494Q135 494 153 477T171 436Q171 412 153 395T112 377Q87 377 70 394T53 436Q53 460 70 477T112 494Z"/><glyph unicode="¢" glyph-name="cent" horiz-adv-x="466" d="M203 -107L217 -5Q176 4 144 25T89 79T54 152T41 242V243Q41 307 61 354T113 431T187 476T270 491H284L296 574H355L343 485Q375 479 394 468T425 443V387Q407 400 386 408T334 421L283 52Q329 52 369 67T433 97V45Q418 25 378 8T275 -11L262 -107H203ZM127 232Q127 90 226 60L275 425Q245 425 219 416T172 388T139 339T127 268V232Z"/><glyph unicode="£" glyph-name="sterling" horiz-adv-x="484" d="M49 345H100V450Q100 499 114 537T153 600T213 639T290 653Q351 653 386 635T442 591V522Q430 532 416 542T384 560T345 573T296 578Q242 578 213 549T183 441V345H348V279H183V253Q183 182 153 140T74 72V71H437V0H29V110Q65 132 82 161T100 244V279H49V345Z"/><glyph unicode="¥" glyph-name="yen" horiz-adv-x="513" d="M213 137H45V196H213V259H45V318H196L23 639H113L260 361L406 639H490L316 318H468V259H300V196H468V137H300V0H213V137Z"/><glyph unicode="¦" glyph-name="brokenbar" horiz-adv-x="250" d="M163 266V-98H87V266H163ZM163 326H87V673H163V326Z"/><glyph unicode="§" glyph-name="section" horiz-adv-x="511" d="M404 552Q380 565 346 575T271 585Q250 585 231 582T198 571T175 549T166 514Q166 496 172 482T198 459Q219 449 243 444T293 432T348 419T406 399Q435 386 453 360T471 299Q471 250 443 222T371 180Q396 165 412 139T428 68Q428 32 415 5T378 -41T323 -69T254 -78Q192 -78 153 -63T85 -24V36Q102 25 118 17T152 2T192 -8T245 -12Q298 -12 323 5T348 63Q348 81 343 95T318 119Q305 126 280 131T225 142T165 155T110 175Q76 192 58 218T40 284Q40 332 69 359T145 397Q117 414 103 440T89 509Q89 545 102 571T139 616T194 642T263 651Q308 651 345 640T404 611V552ZM317 206Q346 206 370 224T394 278Q394 303 384 317T347 339Q329 345 308 351T266 362T227 370T197 373Q182 373 167 368T139 354T120 331T112 300Q112 280 121 267T152 242Q167 235 188 229T231 217T276 209T317 206Z"/><glyph unicode="¨" glyph-name="dieresis" horiz-adv-x="414" d="M121 551Q99 551 84 566T68 603Q68 624 83 639T121 655Q142 655 157 640T173 603Q173 581 158 566T121 551ZM293 551Q272 551 257 566T241 603Q241 624 256 639T293 655Q315 655 330 640T346 603Q346 581 331 566T293 551Z"/><glyph unicode="©" glyph-name="copyright" horiz-adv-x="758" d="M379 33Q439 33 491 55T580 117T639 207T661 317Q661 375 640 427T581 518T491 581T379 604Q319 604 268 581T178 519T119 427T97 317Q97 259 118 208T178 117T267 56T379 33ZM389 130Q311 130 264 180T216 324V326Q216 411 260 461T384 512Q429 512 455 500T496 474V421Q478 433 453 442T395 451Q341 451 316 423T290 341V315Q290 249 318 218T400 187Q426 187 453 196T496 220V171Q482 156 456 143T389 130ZM379 -14Q308 -14 247 12T140 83T70 188T44 317Q44 386 69 446T140 552T246 624T379 651Q451 651 512 625T618 553T688 447T714 317Q714 249 689 189T619 83T513 12T379 -14Z"/><glyph unicode="ª" glyph-name="ordfeminine" horiz-adv-x="328" d="M121 325Q81 325 56 347T31 407V408Q31 433 41 448T68 474T108 490T154 502Q189 510 202 518T215 545V547Q215 565 200 578T149 591Q115 591 89 580T50 559V603Q61 617 89 631T162 646Q225 646 253 615T281 528V415Q281 390 281 375T282 350Q283 339 284 333H229Q226 340 223 350Q221 358 219 368T215 391Q206 358 182 342T121 325ZM147 367Q173 367 194 388T215 449V492Q206 484 192 478T164 467Q128 454 114 443T99 414V410Q99 367 147 367Z"/><glyph unicode="«" glyph-name="guillemotleft" horiz-adv-x="361" d="M199 406L107 246L199 85H117L28 245L117 406H199ZM245 246L337 85H255L166 245L255 406H337L245 246Z"/><glyph unicode="®" glyph-name="registered" horiz-adv-x="377" d="M189 348Q157 348 129 359T81 391T49 439T37 497Q37 527 48 554T80 602T129 635T189 647Q222 647 249 635T297 603T328 555T340 497Q340 466 329 439T297 392T250 360T189 348ZM189 377Q215 377 237 386T274 412T298 450T307 497Q307 522 299 544T275 582T237 608T189 618Q163 618 141 609T104 583T79 544T70 497Q70 472 79 450T103 412T141 387T189 377ZM171 485V426H135V576H193Q219 576 235 565T251 531Q251 493 209 488L259 426H218L171 485ZM190 506Q205 506 210 512T215 529Q215 540 210 545T191 550H171V506H190Z"/><glyph unicode="¯" glyph-name="macron" horiz-adv-x="414" d="M89 628H325V562H89V628Z"/><glyph unicode="°" glyph-name="degree" horiz-adv-x="372" d="M185 363Q154 363 128 374T83 404T53 450T42 506Q42 536 53 562T83 607T128 638T185 649Q216 649 242 638T288 608T319 562T330 506Q330 476 319 450T289 405T243 374T185 363ZM185 420Q219 420 241 443T263 506Q263 543 241 568T185 593Q153 593 131 568T109 506Q109 466 131 443T185 420Z"/><glyph unicode="´" glyph-name="acute" horiz-adv-x="414" d="M227 673H346L227 539H170L227 673Z"/><glyph unicode="¶" glyph-name="paragraph" horiz-adv-x="513" d="M225 -98V291H221Q132 291 86 336T40 467Q40 548 84 593T214 639H296V-98H225ZM358 -98V639H429V-98H358Z"/><glyph unicode="·" glyph-name="periodcentered" horiz-adv-x="224" d="M112 243Q89 243 71 260T53 301Q53 325 71 342T112 360Q137 360 154 343T171 301Q171 277 154 260T112 243Z"/><glyph unicode="¸" glyph-name="cedilla" horiz-adv-x="414" d="M209 0V-39Q255 -44 273 -65T292 -115Q292 -150 267 -168T198 -187Q172 -187 155 -181T129 -167V-127Q137 -130 149 -133T178 -137Q222 -137 222 -110Q222 -97 210 -87T155 -76V0H209Z"/><glyph unicode="º" glyph-name="ordmasculine" horiz-adv-x="363" d="M182 326Q152 326 125 335T77 365T44 416T32 489V490Q32 562 73 604T182 646Q215 646 242 635T289 604T320 556T331 491V490Q331 448 319 417T287 366T239 336T182 326ZM182 371Q217 371 240 395T263 481V504Q263 550 241 575T182 600Q144 600 122 575T100 504V481Q100 420 123 396T182 371Z"/><glyph unicode="»" glyph-name="guillemotright" horiz-adv-x="361" d="M162 85L254 245L162 406H244L333 246L244 85H162ZM116 245L24 406H106L195 246L106 85H24L116 245Z"/><glyph unicode="¼" glyph-name="onequarter" horiz-adv-x="689" d="M606 375V128H664V75H606V0H540V75H371V143L515 375H606ZM416 128H540V325L416 128ZM113 580L29 490H28V560L101 639H182V264H113V580ZM142 0H77L560 639H625L142 0Z"/><glyph unicode="½" glyph-name="onehalf" horiz-adv-x="733" d="M113 580L29 490H28V560L101 639H182V264H113V580ZM448 73Q537 129 580 173T623 262Q623 298 603 312T553 326Q523 326 499 316T456 293V340Q472 357 497 370T565 384Q591 384 614 378T654 357T680 320T690 264Q690 201 640 152T494 54V53H693V0H448V73ZM145 0H80L563 639H628L145 0Z"/><glyph unicode="¾" glyph-name="threequarters" horiz-adv-x="753" d="M670 375V128H728V75H670V0H604V75H435V143L579 375H670ZM480 128H604V325L480 128ZM153 648Q207 648 242 623T277 550Q277 513 256 489T190 459V457Q238 452 264 429T290 363Q290 313 254 286T152 258Q104 258 76 271T34 301V349Q53 332 79 322T144 312Q182 312 201 328T220 375Q220 404 202 418T142 433H92V482H142Q177 482 192 497T208 538Q208 590 141 590Q108 590 86 582T46 561V607Q60 623 86 635T153 648ZM208 0H143L626 639H691L208 0Z"/><glyph unicode="¿" glyph-name="questiondown" horiz-adv-x="399" d="M220 494Q243 494 261 477T279 436Q279 412 261 395T220 377Q195 377 178 394T161 436Q161 460 178 477T220 494ZM262 316V272Q262 241 254 217T232 172T201 134T168 101Q144 78 127 53T109 -6Q109 -54 134 -77T206 -100Q244 -100 282 -90T350 -57V-122Q328 -144 290 -159T198 -174Q163 -174 132 -165T78 -136T41 -84T27 -7Q27 20 33 41T50 80T77 114T110 148Q126 163 141 177T167 207T186 241T193 285V316H262Z"/><glyph unicode="À" glyph-name="Agrave" horiz-adv-x="602" d="M172 796H293L338 685H281L172 796ZM435 189H160L97 0H14L230 639H372L588 0H499L435 189ZM185 262H411L298 600L185 262Z"/><glyph unicode="Á" glyph-name="Aacute" horiz-adv-x="602" d="M309 796H430L321 685H264L309 796ZM435 189H160L97 0H14L230 639H372L588 0H499L435 189ZM185 262H411L298 600L185 262Z"/><glyph unicode="Â" glyph-name="Acircumflex" horiz-adv-x="602" d="M248 796H354L438 685H376L301 738L226 685H164L248 796ZM435 189H160L97 0H14L230 639H372L588 0H499L435 189ZM185 262H411L298 600L185 262Z"/><glyph unicode="Ã" glyph-name="Atilde" horiz-adv-x="602" d="M169 686Q165 707 167 726T177 761T200 786T238 796Q260 796 277 791T310 779T338 768T363 762Q379 762 382 771T388 800H431Q435 779 434 760T425 725T403 700T367 690Q349 690 332 695T300 707T269 718T238 724Q223 724 219 715T212 686H169V686ZM435 189H160L97 0H14L230 639H372L588 0H499L435 189ZM185 262H411L298 600L185 262Z"/><glyph unicode="Ä" glyph-name="Adieresis" horiz-adv-x="602" d="M209 682Q187 682 172 697T156 734Q156 755 171 770T209 786Q230 786 245 771T261 734Q261 712 246 697T209 682ZM393 682Q372 682 357 697T341 734Q341 755 356 770T393 786Q415 786 430 771T446 734Q446 712 431 697T393 682ZM435 189H160L97 0H14L230 639H372L588 0H499L435 189ZM185 262H411L298 600L185 262Z"/><glyph unicode="Å" glyph-name="Aring" horiz-adv-x="602" d="M258 758Q258 736 270 724T301 711Q320 711 332 723T345 758Q345 779 333 792T301 806Q283 806 271 793T258 758ZM210 758Q210 796 236 822T301 849Q320 849 337 842T366 823T386 794T393 758Q393 720 367 694T301 668Q262 668 236 694T210 758ZM435 189H160L97 0H14L230 639H372L588 0H499L435 189ZM185 262H411L298 600L185 262Z"/><glyph unicode="Æ" glyph-name="AE" horiz-adv-x="832" d="M394 189H175L95 0H11L283 639H764V564H481V354H744V281H481V71H764V0H394V189ZM206 262H394V564H334L206 262Z"/><glyph unicode="Ç" glyph-name="Ccedilla" horiz-adv-x="569" d="M340 -15H325V-39Q371 -44 389 -65T408 -115Q408 -150 383 -168T314 -187Q288 -187 271 -181T245 -167V-127Q253 -130 265 -133T294 -137Q338 -137 338 -110Q338 -97 326 -87T271 -76V-8Q244 -2 219 7Q164 30 125 73T64 179T42 324V326Q42 401 61 461T116 564T207 630T331 653Q410 653 456 632T525 586V515Q492 540 447 557T337 575Q283 575 244 559T179 514T141 444T129 351V311Q129 186 183 122T346 58Q373 58 399 63T449 78T493 100T527 126V55Q502 27 454 6T340 -15Z"/><glyph unicode="È" glyph-name="Egrave" horiz-adv-x="548" d="M159 796H280L325 685H268L159 796ZM84 639H480V564H171V354H460V281H171V71H480V0H84V639Z"/><glyph unicode="É" glyph-name="Eacute" horiz-adv-x="548" d="M296 796H417L308 685H251L296 796ZM84 639H480V564H171V354H460V281H171V71H480V0H84V639Z"/><glyph unicode="Ê" glyph-name="Ecircumflex" horiz-adv-x="548" d="M235 796H341L425 685H363L288 738L213 685H151L235 796ZM84 639H480V564H171V354H460V281H171V71H480V0H84V639Z"/><glyph unicode="Ë" glyph-name="Edieresis" horiz-adv-x="548" d="M196 682Q174 682 159 697T143 734Q143 755 158 770T196 786Q217 786 232 771T248 734Q248 712 233 697T196 682ZM380 682Q359 682 344 697T328 734Q328 755 343 770T380 786Q402 786 417 771T433 734Q433 712 418 697T380 682ZM84 639H480V564H171V354H460V281H171V71H480V0H84V639Z"/><glyph unicode="Ì" glyph-name="Igrave" horiz-adv-x="263" d="M2 796H123L168 685H111L2 796ZM88 639H175V0H88V639Z"/><glyph unicode="Í" glyph-name="Iacute" horiz-adv-x="263" d="M139 796H260L151 685H94L139 796ZM88 639H175V0H88V639Z"/><glyph unicode="Î" glyph-name="Icircumflex" horiz-adv-x="263" d="M78 796H184L268 685H206L131 738L56 685H-6L78 796ZM88 639H175V0H88V639Z"/><glyph unicode="Ï" glyph-name="Idieresis" horiz-adv-x="263" d="M39 682Q17 682 2 697T-14 734Q-14 755 1 770T39 786Q60 786 75 771T91 734Q91 712 76 697T39 682ZM223 682Q202 682 187 697T171 734Q171 755 186 770T223 786Q245 786 260 771T276 734Q276 712 261 697T223 682ZM88 639H175V0H88V639Z"/><glyph unicode="Ð" glyph-name="Eth" horiz-adv-x="649" d="M27 352H97V639H334Q404 639 455 618T539 556T588 459T604 331V329Q604 171 533 86T315 0H97V284H27V352ZM304 69Q362 69 402 85T468 133T505 211T517 315V355Q517 402 508 441T478 507T419 550T324 565H184V352H356V284H184V69H304Z"/><glyph unicode="Ñ" glyph-name="Ntilde" horiz-adv-x="672" d="M224 686Q220 707 222 726T232 761T255 786T293 796Q315 796 332 791T365 779T393 768T418 762Q434 762 437 771T443 800H486Q490 779 489 760T480 725T458 700T422 690Q404 690 387 695T355 707T324 718T293 724Q278 724 274 715T267 686H224V686ZM84 639H223L507 78V639H588V0H459L165 571V0H84V639Z"/><glyph unicode="Ò" glyph-name="Ograve" horiz-adv-x="658" d="M200 796H321L366 685H309L200 796ZM329 -15Q266 -15 214 6T124 69T66 174T45 321V323Q45 398 63 459T116 563T205 629T329 653Q400 653 453 630T541 563T595 459T613 323V321Q613 237 593 174T535 69T446 6T329 -15ZM329 56Q429 56 477 115T526 302V354Q526 403 515 444T481 515T420 561T329 578Q276 578 239 562T178 515T143 444T132 354V302Q132 174 180 115T329 56Z"/><glyph unicode="Ó" glyph-name="Oacute" horiz-adv-x="658" d="M337 796H458L349 685H292L337 796ZM329 -15Q266 -15 214 6T124 69T66 174T45 321V323Q45 398 63 459T116 563T205 629T329 653Q400 653 453 630T541 563T595 459T613 323V321Q613 237 593 174T535 69T446 6T329 -15ZM329 56Q429 56 477 115T526 302V354Q526 403 515 444T481 515T420 561T329 578Q276 578 239 562T178 515T143 444T132 354V302Q132 174 180 115T329 56Z"/><glyph unicode="Ô" glyph-name="Ocircumflex" horiz-adv-x="658" d="M276 796H382L466 685H404L329 738L254 685H192L276 796ZM329 -15Q266 -15 214 6T124 69T66 174T45 321V323Q45 398 63 459T116 563T205 629T329 653Q400 653 453 630T541 563T595 459T613 323V321Q613 237 593 174T535 69T446 6T329 -15ZM329 56Q429 56 477 115T526 302V354Q526 403 515 444T481 515T420 561T329 578Q276 578 239 562T178 515T143 444T132 354V302Q132 174 180 115T329 56Z"/><glyph unicode="Õ" glyph-name="Otilde" horiz-adv-x="658" d="M197 686Q193 707 195 726T205 761T228 786T266 796Q288 796 305 791T338 779T366 768T391 762Q407 762 410 771T416 800H459Q463 779 462 760T453 725T431 700T395 690Q377 690 360 695T328 707T297 718T266 724Q251 724 247 715T240 686H197V686ZM329 -15Q266 -15 214 6T124 69T66 174T45 321V323Q45 398 63 459T116 563T205 629T329 653Q400 653 453 630T541 563T595 459T613 323V321Q613 237 593 174T535 69T446 6T329 -15ZM329 56Q429 56 477 115T526 302V354Q526 403 515 444T481 515T420 561T329 578Q276 578 239 562T178 515T143 444T132 354V302Q132 174 180 115T329 56Z"/><glyph unicode="Ö" glyph-name="Odieresis" horiz-adv-x="658" d="M237 682Q215 682 200 697T184 734Q184 755 199 770T237 786Q258 786 273 771T289 734Q289 712 274 697T237 682ZM421 682Q400 682 385 697T369 734Q369 755 384 770T421 786Q443 786 458 771T474 734Q474 712 459 697T421 682ZM329 -15Q266 -15 214 6T124 69T66 174T45 321V323Q45 398 63 459T116 563T205 629T329 653Q400 653 453 630T541 563T595 459T613 323V321Q613 237 593 174T535 69T446 6T329 -15ZM329 56Q429 56 477 115T526 302V354Q526 403 515 444T481 515T420 561T329 578Q276 578 239 562T178 515T143 444T132 354V302Q132 174 180 115T329 56Z"/><glyph unicode="×" glyph-name="multiply" horiz-adv-x="468" d="M184 308L57 435L107 485L234 358L361 485L411 435L284 308L411 181L361 131L234 258L107 131L57 181L184 308Z"/><glyph unicode="Ø" glyph-name="Oslash" horiz-adv-x="658" d="M544 560Q579 517 596 457T613 323V321Q613 237 593 174T535 69T446 6T329 -15Q277 -15 233 -2T153 41L108 -19H31L110 86Q78 128 62 186T45 321V323Q45 398 63 459T116 563T205 629T329 653Q381 653 423 640T499 603L539 656H616L544 560ZM329 56Q429 56 477 115T526 302V354Q526 401 520 437T499 500L192 92Q215 72 249 64T329 56ZM132 302Q132 201 154 145L457 547Q413 578 329 578Q276 578 239 562T178 515T143 444T132 354V302Z"/><glyph unicode="Ù" glyph-name="Ugrave" horiz-adv-x="662" d="M202 796H323L368 685H311L202 796ZM78 639H165V226Q165 176 175 143T207 89T259 61T331 53Q371 53 402 61T454 88T486 141T497 225V639H584V244Q584 168 564 118T510 39T429 -3T331 -15Q280 -15 234 -3T154 39T99 119T78 245V639Z"/><glyph unicode="Ú" glyph-name="Uacute" horiz-adv-x="662" d="M339 796H460L351 685H294L339 796ZM78 639H165V226Q165 176 175 143T207 89T259 61T331 53Q371 53 402 61T454 88T486 141T497 225V639H584V244Q584 168 564 118T510 39T429 -3T331 -15Q280 -15 234 -3T154 39T99 119T78 245V639Z"/><glyph unicode="Û" glyph-name="Ucircumflex" horiz-adv-x="662" d="M278 796H384L468 685H406L331 738L256 685H194L278 796ZM78 639H165V226Q165 176 175 143T207 89T259 61T331 53Q371 53 402 61T454 88T486 141T497 225V639H584V244Q584 168 564 118T510 39T429 -3T331 -15Q280 -15 234 -3T154 39T99 119T78 245V639Z"/><glyph unicode="Ü" glyph-name="Udieresis" horiz-adv-x="662" d="M239 682Q217 682 202 697T186 734Q186 755 201 770T239 786Q260 786 275 771T291 734Q291 712 276 697T239 682ZM423 682Q402 682 387 697T371 734Q371 755 386 770T423 786Q445 786 460 771T476 734Q476 712 461 697T423 682ZM78 639H165V226Q165 176 175 143T207 89T259 61T331 53Q371 53 402 61T454 88T486 141T497 225V639H584V244Q584 168 564 118T510 39T429 -3T331 -15Q280 -15 234 -3T154 39T99 119T78 245V639Z"/><glyph unicode="Ý" glyph-name="Yacute" horiz-adv-x="547" d="M285 796H406L297 685H240L285 796ZM230 246L14 639H108L277 324L445 639H533L317 248V0H230V246Z"/><glyph unicode="Þ" glyph-name="Thorn" horiz-adv-x="561" d="M84 639H171V516H311Q415 516 466 464T517 322Q517 229 460 180T294 130H171V0H84V639ZM284 200Q368 200 400 233T432 323Q432 378 403 410T301 442H171V200H284Z"/><glyph unicode="ß" glyph-name="germandbls" horiz-adv-x="546" d="M272 680Q300 680 330 674T387 652T430 609T447 539Q447 502 424 473T373 420T322 377T299 342Q299 326 306 318T332 302Q344 297 359 291T389 280T417 269T439 259Q474 240 494 212T515 135Q515 62 473 26T352 -11Q305 -11 272 0T212 34V95Q243 75 273 65T343 55Q381 55 408 72T436 131Q436 149 428 164T401 191Q381 203 354 212T292 237Q257 252 240 273T222 330Q222 364 244 389T293 437T342 486T365 545Q365 577 341 597T270 618Q211 618 180 583T148 480V0H64V481Q64 533 80 570T124 632T190 668T272 680Z"/><glyph unicode="à" glyph-name="agrave" horiz-adv-x="472" d="M179 -13Q116 -13 77 21T37 116V117Q37 156 53 181T97 222T159 247T233 266Q262 273 280 279T310 294T325 313T330 340V342Q330 374 305 396T223 419Q196 419 172 414T128 400T92 383T67 366V426Q76 436 91 447T127 469T175 485T235 491Q328 491 370 443T414 313V127Q414 89 414 65T415 26Q416 9 417 0H350Q344 13 340 28Q336 41 333 57T330 94Q316 40 276 14T179 -13ZM209 45Q231 45 252 54T291 81T319 125T330 186V257Q314 243 290 233T240 214Q207 202 185 193T149 173T129 151T123 124V119Q123 45 209 45ZM97 673H216L273 539H216L97 673Z"/><glyph unicode="á" glyph-name="aacute" horiz-adv-x="472" d="M179 -13Q116 -13 77 21T37 116V117Q37 156 53 181T97 222T159 247T233 266Q262 273 280 279T310 294T325 313T330 340V342Q330 374 305 396T223 419Q196 419 172 414T128 400T92 383T67 366V426Q76 436 91 447T127 469T175 485T235 491Q328 491 370 443T414 313V127Q414 89 414 65T415 26Q416 9 417 0H350Q344 13 340 28Q336 41 333 57T330 94Q316 40 276 14T179 -13ZM209 45Q231 45 252 54T291 81T319 125T330 186V257Q314 243 290 233T240 214Q207 202 185 193T149 173T129 151T123 124V119Q123 45 209 45ZM248 673H367L248 539H191L248 673Z"/><glyph unicode="â" glyph-name="acircumflex" horiz-adv-x="472" d="M179 -13Q116 -13 77 21T37 116V117Q37 156 53 181T97 222T159 247T233 266Q262 273 280 279T310 294T325 313T330 340V342Q330 374 305 396T223 419Q196 419 172 414T128 400T92 383T67 366V426Q76 436 91 447T127 469T175 485T235 491Q328 491 370 443T414 313V127Q414 89 414 65T415 26Q416 9 417 0H350Q344 13 340 28Q336 41 333 57T330 94Q316 40 276 14T179 -13ZM209 45Q231 45 252 54T291 81T319 125T330 186V257Q314 243 290 233T240 214Q207 202 185 193T149 173T129 151T123 124V119Q123 45 209 45ZM184 673H288L376 539H315L236 616L157 539H96L184 673Z"/><glyph unicode="ã" glyph-name="atilde" horiz-adv-x="472" d="M179 -13Q116 -13 77 21T37 116V117Q37 156 53 181T97 222T159 247T233 266Q262 273 280 279T310 294T325 313T330 340V342Q330 374 305 396T223 419Q196 419 172 414T128 400T92 383T67 366V426Q76 436 91 447T127 469T175 485T235 491Q328 491 370 443T414 313V127Q414 89 414 65T415 26Q416 9 417 0H350Q344 13 340 28Q336 41 333 57T330 94Q316 40 276 14T179 -13ZM209 45Q231 45 252 54T291 81T319 125T330 186V257Q314 243 290 233T240 214Q207 202 185 193T149 173T129 151T123 124V119Q123 45 209 45ZM111 559Q107 580 108 599T118 634T140 659T178 669Q198 669 214 664T243 652T268 641T291 635Q307 635 310 644T316 673H359Q363 652 362 633T354 598T333 573T297 563Q280 563 265 568T236 580T207 591T180 597Q165 597 161 588T154 559H111V559Z"/><glyph unicode="ä" glyph-name="adieresis" horiz-adv-x="472" d="M179 -13Q116 -13 77 21T37 116V117Q37 156 53 181T97 222T159 247T233 266Q262 273 280 279T310 294T325 313T330 340V342Q330 374 305 396T223 419Q196 419 172 414T128 400T92 383T67 366V426Q76 436 91 447T127 469T175 485T235 491Q328 491 370 443T414 313V127Q414 89 414 65T415 26Q416 9 417 0H350Q344 13 340 28Q336 41 333 57T330 94Q316 40 276 14T179 -13ZM209 45Q231 45 252 54T291 81T319 125T330 186V257Q314 243 290 233T240 214Q207 202 185 193T149 173T129 151T123 124V119Q123 45 209 45ZM150 551Q128 551 113 566T97 603Q97 624 112 639T150 655Q171 655 186 640T202 603Q202 581 187 566T150 551ZM322 551Q301 551 286 566T270 603Q270 624 285 639T322 655Q344 655 359 640T375 603Q375 581 360 566T322 551Z"/><glyph unicode="å" glyph-name="aring" horiz-adv-x="472" d="M179 -13Q116 -13 77 21T37 116V117Q37 156 53 181T97 222T159 247T233 266Q262 273 280 279T310 294T325 313T330 340V342Q330 374 305 396T223 419Q196 419 172 414T128 400T92 383T67 366V426Q76 436 91 447T127 469T175 485T235 491Q328 491 370 443T414 313V127Q414 89 414 65T415 26Q416 9 417 0H350Q344 13 340 28Q336 41 333 57T330 94Q316 40 276 14T179 -13ZM209 45Q231 45 252 54T291 81T319 125T330 186V257Q314 243 290 233T240 214Q207 202 185 193T149 173T129 151T123 124V119Q123 45 209 45ZM145 634Q145 672 171 698T236 725Q255 725 272 718T301 699T321 670T328 634Q328 596 302 570T236 544Q197 544 171 570T145 634ZM193 634Q193 612 205 600T236 587Q255 587 267 599T280 634Q280 655 268 668T236 682Q218 682 206 669T193 634Z"/><glyph unicode="æ" glyph-name="ae" horiz-adv-x="786" d="M191 -13Q119 -13 78 21T37 116V117Q37 156 53 181T97 222T159 247T233 266Q262 273 280 279T310 294T325 313T330 340V342Q330 374 305 396T223 419Q196 419 172 414T128 400T92 383T67 366V426Q76 436 91 447T127 469T175 485T235 491Q298 491 334 469T385 404Q411 445 453 468T553 491Q607 491 644 474T705 429T739 365T750 289Q750 252 743 220H415Q416 174 427 143T460 92T512 64T583 55Q634 55 675 67T737 94V40Q723 21 681 5T573 -11Q492 -11 435 24T350 125Q344 84 329 58T293 15T245 -7T191 -13ZM553 430Q493 430 455 389T415 273H674V283Q674 360 640 395T553 430ZM209 45Q231 45 252 52T291 76T319 117T330 176V257Q314 243 290 233T240 214Q207 202 185 193T149 173T129 151T123 124V119Q123 45 209 45Z"/><glyph unicode="ç" glyph-name="ccedilla" horiz-adv-x="466" d="M272 -11H260V-39Q306 -44 324 -65T343 -115Q343 -150 318 -168T249 -187Q223 -187 206 -181T180 -167V-127Q188 -130 200 -133T229 -137Q273 -137 273 -110Q273 -97 261 -87T206 -76V-2Q191 1 177 7Q135 26 105 59T58 139T41 242V243Q41 307 61 354T113 431T187 476T270 491Q337 491 373 477T425 443V387Q399 406 366 415T276 425Q246 425 219 416T172 388T139 339T127 268V232Q127 142 167 97T283 52Q329 52 369 67T433 97V45Q418 25 377 7T272 -11Z"/><glyph unicode="è" glyph-name="egrave" horiz-adv-x="498" d="M127 220Q128 174 139 143T172 92T224 64T295 55Q346 55 387 67T449 94V40Q435 21 393 5T285 -11Q230 -11 185 5T108 54T59 133T41 241V242Q41 297 57 342T102 421T173 472T265 491Q319 491 356 474T417 429T451 365T462 289Q462 252 455 220H127ZM265 430Q205 430 167 389T127 273H386V283Q386 360 352 395T265 430ZM120 673H239L296 539H239L120 673Z"/><glyph unicode="é" glyph-name="eacute" horiz-adv-x="498" d="M127 220Q128 174 139 143T172 92T224 64T295 55Q346 55 387 67T449 94V40Q435 21 393 5T285 -11Q230 -11 185 5T108 54T59 133T41 241V242Q41 297 57 342T102 421T173 472T265 491Q319 491 356 474T417 429T451 365T462 289Q462 252 455 220H127ZM265 430Q205 430 167 389T127 273H386V283Q386 360 352 395T265 430ZM274 673H393L274 539H217L274 673Z"/><glyph unicode="ê" glyph-name="ecircumflex" horiz-adv-x="498" d="M127 220Q128 174 139 143T172 92T224 64T295 55Q346 55 387 67T449 94V40Q435 21 393 5T285 -11Q230 -11 185 5T108 54T59 133T41 241V242Q41 297 57 342T102 421T173 472T265 491Q319 491 356 474T417 429T451 365T462 289Q462 252 455 220H127ZM265 430Q205 430 167 389T127 273H386V283Q386 360 352 395T265 430ZM207 673H311L399 539H338L259 616L180 539H119L207 673Z"/><glyph unicode="ë" glyph-name="edieresis" horiz-adv-x="498" d="M127 220Q128 174 139 143T172 92T224 64T295 55Q346 55 387 67T449 94V40Q435 21 393 5T285 -11Q230 -11 185 5T108 54T59 133T41 241V242Q41 297 57 342T102 421T173 472T265 491Q319 491 356 474T417 429T451 365T462 289Q462 252 455 220H127ZM265 430Q205 430 167 389T127 273H386V283Q386 360 352 395T265 430ZM173 551Q151 551 136 566T120 603Q120 624 135 639T173 655Q194 655 209 640T225 603Q225 581 210 566T173 551ZM345 551Q324 551 309 566T293 603Q293 624 308 639T345 655Q367 655 382 640T398 603Q398 581 383 566T345 551Z"/><glyph unicode="ì" glyph-name="igrave" horiz-adv-x="220" d="M68 479H152V0H68V479ZM227 673H346L403 539H346L227 673Z"/><glyph unicode="í" glyph-name="iacute" horiz-adv-x="220" d="M68 479H152V0H68V479ZM386 673H505L386 539H329L386 673Z"/><glyph unicode="î" glyph-name="icircumflex" horiz-adv-x="220" d="M68 479H152V0H68V479ZM314 673H418L506 539H445L366 616L287 539H226L314 673Z"/><glyph unicode="ï" glyph-name="idieresis" horiz-adv-x="220" d="M34 551Q12 551 -3 566T-19 603Q-19 624 -4 639T34 655Q55 655 70 640T86 603Q86 581 71 566T34 551ZM186 551Q165 551 150 566T134 603Q134 624 149 639T186 655Q208 655 223 640T239 603Q239 581 224 566T186 551ZM68 479H152V0H68V479Z"/><glyph unicode="ð" glyph-name="eth" horiz-adv-x="540" d="M372 428Q349 467 318 501T250 565L108 510L85 556L201 600Q171 620 141 637T81 668V673H210Q225 665 242 655T280 631L376 668L399 622L328 595Q360 568 390 534T445 459T484 370T499 265V246Q499 181 481 133T431 52T358 5T270 -11Q223 -11 182 4T109 52T60 132T41 245V246Q41 302 57 346T100 422T164 469T242 486Q287 486 316 472T371 427L372 428ZM270 49Q301 49 327 59T372 91T402 147T413 232V270Q413 345 375 387T270 430Q204 430 166 388T127 270V232Q127 182 138 148T168 91T213 59T270 49Z"/><glyph unicode="ñ" glyph-name="ntilde" horiz-adv-x="533" d="M64 479H128Q134 462 138 443Q142 426 145 406T148 362V348Q154 383 170 409T209 454T260 481T320 491Q390 491 432 450T475 327V0H391V340Q391 421 297 421Q266 421 239 411T192 381T160 332T148 265V0H64V479ZM148 559Q144 580 145 599T155 634T177 659T215 669Q235 669 251 664T280 652T305 641T328 635Q344 635 347 644T353 673H396Q400 652 399 633T391 598T370 573T334 563Q317 563 302 568T273 580T244 591T217 597Q202 597 198 588T191 559H148V559Z"/><glyph unicode="ò" glyph-name="ograve" horiz-adv-x="540" d="M270 -11Q223 -11 182 4T109 52T60 132T41 245V246Q41 302 57 347T104 424T176 473T269 491Q321 491 363 474T436 425T482 348T499 247V246Q499 181 481 133T431 52T358 5T270 -11ZM270 49Q301 49 327 59T372 91T402 147T413 232V270Q413 345 375 387T270 430Q204 430 166 388T127 270V232Q127 182 138 148T168 91T213 59T270 49ZM136 673H255L312 539H255L136 673Z"/><glyph unicode="ó" glyph-name="oacute" horiz-adv-x="540" d="M270 -11Q223 -11 182 4T109 52T60 132T41 245V246Q41 302 57 347T104 424T176 473T269 491Q321 491 363 474T436 425T482 348T499 247V246Q499 181 481 133T431 52T358 5T270 -11ZM270 49Q301 49 327 59T372 91T402 147T413 232V270Q413 345 375 387T270 430Q204 430 166 388T127 270V232Q127 182 138 148T168 91T213 59T270 49ZM286 673H405L286 539H229L286 673Z"/><glyph unicode="ô" glyph-name="ocircumflex" horiz-adv-x="540" d="M270 -11Q223 -11 182 4T109 52T60 132T41 245V246Q41 302 57 347T104 424T176 473T269 491Q321 491 363 474T436 425T482 348T499 247V246Q499 181 481 133T431 52T358 5T270 -11ZM270 49Q301 49 327 59T372 91T402 147T413 232V270Q413 345 375 387T270 430Q204 430 166 388T127 270V232Q127 182 138 148T168 91T213 59T270 49ZM218 673H322L410 539H349L270 616L191 539H130L218 673Z"/><glyph unicode="õ" glyph-name="otilde" horiz-adv-x="540" d="M270 -11Q223 -11 182 4T109 52T60 132T41 245V246Q41 302 57 347T104 424T176 473T269 491Q321 491 363 474T436 425T482 348T499 247V246Q499 181 481 133T431 52T358 5T270 -11ZM270 49Q301 49 327 59T372 91T402 147T413 232V270Q413 345 375 387T270 430Q204 430 166 388T127 270V232Q127 182 138 148T168 91T213 59T270 49ZM145 559Q141 580 142 599T152 634T174 659T212 669Q232 669 248 664T277 652T302 641T325 635Q341 635 344 644T350 673H393Q397 652 396 633T388 598T367 573T331 563Q314 563 299 568T270 580T241 591T214 597Q199 597 195 588T188 559H145V559Z"/><glyph unicode="ö" glyph-name="odieresis" horiz-adv-x="540" d="M270 -11Q223 -11 182 4T109 52T60 132T41 245V246Q41 302 57 347T104 424T176 473T269 491Q321 491 363 474T436 425T482 348T499 247V246Q499 181 481 133T431 52T358 5T270 -11ZM270 49Q301 49 327 59T372 91T402 147T413 232V270Q413 345 375 387T270 430Q204 430 166 388T127 270V232Q127 182 138 148T168 91T213 59T270 49ZM184 551Q162 551 147 566T131 603Q131 624 146 639T184 655Q205 655 220 640T236 603Q236 581 221 566T184 551ZM356 551Q335 551 320 566T304 603Q304 624 319 639T356 655Q378 655 393 640T409 603Q409 581 394 566T356 551Z"/><glyph unicode="÷" glyph-name="divide" horiz-adv-x="490" d="M434 351V279H56V351H434ZM245 102Q222 102 204 119T186 160Q186 184 204 201T245 219Q270 219 287 202T304 160Q304 136 287 119T245 102ZM245 410Q222 410 204 427T186 468Q186 492 204 509T245 527Q270 527 287 510T304 468Q304 444 287 427T245 410Z"/><glyph unicode="ø" glyph-name="oslash" horiz-adv-x="540" d="M439 421Q468 389 483 345T499 247V246Q499 181 481 133T431 52T358 5T270 -11Q196 -11 140 27L105 -19H39L100 61Q73 93 57 138T41 245V246Q41 302 57 347T104 424T176 473T270 491Q343 491 399 455L433 500H499L439 421ZM413 270Q413 298 409 321T396 364L176 75Q209 49 270 49Q301 49 327 59T372 91T402 147T413 232V270ZM127 232Q127 159 144 119L362 406Q345 417 323 423T270 430Q204 430 166 388T127 270V232Z"/><glyph unicode="ù" glyph-name="ugrave" horiz-adv-x="533" d="M223 -12Q148 -12 105 32T61 173V479H145V160Q145 103 169 79T241 54Q272 54 298 65T344 97T374 147T385 212V479H469V0H405Q399 17 395 36Q391 53 388 73T385 117V123Q379 91 364 66T327 23T278 -3T223 -12ZM127 673H246L303 539H246L127 673Z"/><glyph unicode="ú" glyph-name="uacute" horiz-adv-x="533" d="M223 -12Q148 -12 105 32T61 173V479H145V160Q145 103 169 79T241 54Q272 54 298 65T344 97T374 147T385 212V479H469V0H405Q399 17 395 36Q391 53 388 73T385 117V123Q379 91 364 66T327 23T278 -3T223 -12ZM286 673H405L286 539H229L286 673Z"/><glyph unicode="û" glyph-name="ucircumflex" horiz-adv-x="533" d="M223 -12Q148 -12 105 32T61 173V479H145V160Q145 103 169 79T241 54Q272 54 298 65T344 97T374 147T385 212V479H469V0H405Q399 17 395 36Q391 53 388 73T385 117V123Q379 91 364 66T327 23T278 -3T223 -12ZM214 673H318L406 539H345L266 616L187 539H126L214 673Z"/><glyph unicode="ü" glyph-name="udieresis" horiz-adv-x="533" d="M223 -12Q148 -12 105 32T61 173V479H145V160Q145 103 169 79T241 54Q272 54 298 65T344 97T374 147T385 212V479H469V0H405Q399 17 395 36Q391 53 388 73T385 117V123Q379 91 364 66T327 23T278 -3T223 -12ZM180 551Q158 551 143 566T127 603Q127 624 142 639T180 655Q201 655 216 640T232 603Q232 581 217 566T180 551ZM352 551Q331 551 316 566T300 603Q300 624 315 639T352 655Q374 655 389 640T405 603Q405 581 390 566T352 551Z"/><glyph unicode="ý" glyph-name="yacute" horiz-adv-x="497" d="M137 -156Q99 -156 76 -146T39 -122V-76Q58 -82 79 -86T133 -90Q168 -90 190 -73T224 -26L233 0H196L17 479H108L255 63L396 479H480L304 -6Q275 -86 238 -121T137 -156ZM272 673H391L272 539H215L272 673Z"/><glyph unicode="þ" glyph-name="thorn" horiz-adv-x="567" d="M324 -11Q254 -11 210 23T148 114V-146H64V673H148V357Q165 417 212 454T331 491Q377 491 413 474T475 424T513 347T526 248V247Q526 183 511 135T468 55T403 6T324 -11ZM305 51Q367 51 403 94T440 234V270Q440 342 406 383T305 424Q274 424 246 414T196 382T161 331T148 262V242Q148 191 161 155T195 96T245 62T305 51Z"/><glyph unicode="ÿ" glyph-name="ydieresis" horiz-adv-x="497" d="M137 -156Q99 -156 76 -146T39 -122V-76Q58 -82 79 -86T133 -90Q168 -90 190 -73T224 -26L233 0H196L17 479H108L255 63L396 479H480L304 -6Q275 -86 238 -121T137 -156ZM166 551Q144 551 129 566T113 603Q113 624 128 639T166 655Q187 655 202 640T218 603Q218 581 203 566T166 551ZM338 551Q317 551 302 566T286 603Q286 624 301 639T338 655Q360 655 375 640T391 603Q391 581 376 566T338 551Z"/><glyph unicode="ı" glyph-name="dotlessi" horiz-adv-x="218" d="M68 479H152V0H68V479Z"/><glyph unicode="Ł" glyph-name="Lslash" horiz-adv-x="520" d="M100 639H187V333L383 445V371L187 259V71H496V0H100V209L18 163V237L100 283V639Z"/><glyph unicode="ł" glyph-name="lslash" horiz-adv-x="265" d="M29 323L91 368V673H174V428L246 480V408L174 356V0H91V296L29 251V323Z"/><glyph unicode="Œ" glyph-name="OE" horiz-adv-x="853" d="M334 0Q187 0 116 85T45 329V331Q45 402 61 459T110 556T194 617T315 639H785V564H502V354H765V281H502V71H785V0H334ZM132 315Q132 257 143 211T180 134T246 86T345 69H415V565H325Q268 565 231 550T172 508T141 441T132 355V315Z"/><glyph unicode="œ" glyph-name="oe" horiz-adv-x="870" d="M657 -11Q498 -11 455 125Q433 56 386 23T270 -11Q223 -11 182 4T109 52T60 132T41 245V246Q41 302 57 347T104 424T176 473T270 491Q344 491 390 456T456 358Q476 419 520 455T637 491Q691 491 728 474T789 429T823 365T834 289Q834 252 827 220H499Q500 174 511 143T544 92T596 64T667 55Q718 55 759 67T821 94V40Q807 21 765 5T657 -11ZM270 49Q301 49 327 59T372 91T402 147T413 232V270Q413 345 375 387T270 430Q204 430 166 388T127 270V232Q127 182 138 148T168 91T213 59T270 49ZM637 430Q577 430 539 389T499 273H758V283Q758 360 724 395T637 430Z"/><glyph unicode="Š" glyph-name="Scaron" horiz-adv-x="515" d="M112 796H174L249 743L324 796H386L302 685H196L112 796ZM253 -15Q173 -15 122 6T45 53V129Q60 116 80 103T125 80T181 63T246 56Q276 56 302 62T347 83T378 119T389 175Q389 201 384 218T361 249Q345 261 315 269T251 284T184 299T129 319Q89 341 69 376T48 469Q48 517 65 551T112 608T180 642T260 653Q324 653 367 638T434 603V530Q422 538 404 546T363 562T316 573T268 578Q242 578 218 574T174 559T142 526T130 470Q130 446 138 426T170 392Q195 377 227 370T292 357T356 343T411 318Q439 298 455 265T472 179Q472 128 454 92T406 32T336 -3T253 -15Z"/><glyph unicode="š" glyph-name="scaron" horiz-adv-x="415" d="M204 -11Q142 -11 102 3T34 41V103Q51 92 67 84T101 69T142 59T195 55Q248 55 275 72T303 131Q303 149 298 164T273 189Q260 196 240 200T196 208T150 218T109 233Q75 250 58 275T41 349Q41 385 54 411T91 456T146 482T215 491Q260 491 297 480T356 451V392Q332 405 298 415T223 425Q202 425 183 422T150 410T126 388T117 353Q117 335 123 321T149 298Q170 288 193 283T238 274T282 265T321 250Q349 235 365 209T382 135Q382 99 368 72T330 26T274 -2T204 -11ZM68 673H129L208 596L287 673H348L260 539H156L68 673Z"/><glyph unicode="Ÿ" glyph-name="Ydieresis" horiz-adv-x="547" d="M185 682Q163 682 148 697T132 734Q132 755 147 770T185 786Q206 786 221 771T237 734Q237 712 222 697T185 682ZM369 682Q348 682 333 697T317 734Q317 755 332 770T369 786Q391 786 406 771T422 734Q422 712 407 697T369 682ZM230 246L14 639H108L277 324L445 639H533L317 248V0H230V246Z"/><glyph unicode="Ž" glyph-name="Zcaron" horiz-adv-x="557" d="M158 796H220L295 743L370 796H432L348 685H242L158 796ZM511 639V543L124 68H507V0H47V96L429 566H73V639H511Z"/><glyph unicode="ž" glyph-name="zcaron" horiz-adv-x="446" d="M410 479V397L119 64H407V0H40V82L330 414H59V479H410ZM92 673H153L232 596L311 673H372L284 539H180L92 673Z"/><glyph unicode="ƒ" glyph-name="florin" horiz-adv-x="404" d="M121 401L134 514Q139 559 153 590T187 642T233 671T285 680Q316 680 338 672T372 652V607Q363 608 347 608T319 609Q293 609 276 605T247 590T231 564T222 524L208 401H337V337H200L145 -146H58L113 337H32V401H121Z"/><glyph unicode="ˆ" glyph-name="circumflex" horiz-adv-x="414" d="M155 673H259L347 539H286L207 616L128 539H67L155 673Z"/><glyph unicode="ˇ" glyph-name="caron" horiz-adv-x="414" d="M67 673H128L207 596L286 673H347L259 539H155L67 673Z"/><glyph unicode="˘" glyph-name="breve" horiz-adv-x="414" d="M323 673Q325 649 319 625T299 581T262 549T206 537Q174 537 151 549T114 580T94 624T90 673H144Q143 645 157 624T206 602Q242 602 256 623T269 673H323Z"/><glyph unicode="˙" glyph-name="dotaccent" horiz-adv-x="414" d="M207 551Q184 551 168 566T152 605Q152 628 168 644T207 660Q230 660 246 644T262 605Q262 582 246 567T207 551Z"/><glyph unicode="˚" glyph-name="ring" horiz-adv-x="414" d="M116 634Q116 672 142 698T207 725Q226 725 243 718T272 699T292 670T299 634Q299 596 273 570T207 544Q168 544 142 570T116 634ZM164 634Q164 612 176 600T207 587Q226 587 238 599T251 634Q251 655 239 668T207 682Q189 682 177 669T164 634Z"/><glyph unicode="˛" glyph-name="ogonek" horiz-adv-x="414" d="M221 -155Q179 -155 159 -136T138 -85Q138 -52 163 -30T221 0H268Q226 -21 215 -39T204 -71Q204 -100 238 -100Q249 -100 257 -98T272 -92V-137Q266 -145 253 -150T221 -155Z"/><glyph unicode="˜" glyph-name="tilde" horiz-adv-x="414" d="M82 559Q78 580 79 599T89 634T111 659T149 669Q169 669 185 664T214 652T239 641T262 635Q278 635 281 644T287 673H330Q334 652 333 633T325 598T304 573T268 563Q251 563 236 568T207 580T178 591T151 597Q136 597 132 588T125 559H82V559Z"/><glyph unicode="˝" glyph-name="hungarumlaut" horiz-adv-x="414" d="M143 673H241L161 539H98L143 673ZM288 673H386L306 539H243L288 673Z"/></font>
</defs>
</svg>
